<?xml version="1.0" encoding="UTF-8"?>
<svg version="1.1" xmlns="http://www.w3.org/2000/svg" width="500" height="500">
<path d="M0 0 C165 0 330 0 500 0 C500 165 500 330 500 500 C335 500 170 500 0 500 C0 335 0 170 0 0 Z " fill="#FEFEFE" transform="translate(0,0)"/>
<path d="M0 0 C44.88 0 89.76 0 136 0 C136 5.61 136 11.22 136 17 C124.45 17 112.9 17 101 17 C101 148.01 101 279.02 101 414 C206.59824189 423.05305879 206.59824189 423.05305879 302.9375 383.5 C314.38218699 371.75320171 327.8768081 351.3556585 329.1862793 334.61914062 C328.97323864 331.62372758 328.26386622 330.23456274 326.6484375 327.7265625 C325.87693359 326.50743164 325.87693359 326.50743164 325.08984375 325.26367188 C324.52394531 324.39291016 323.95804687 323.52214844 323.375 322.625 C322.17341896 320.73244354 320.97293571 318.83918974 319.7734375 316.9453125 C319.14920898 315.96594727 318.52498047 314.98658203 317.88183594 313.97753906 C314.85660762 309.19086489 311.93020918 304.34521155 309 299.5 C305.45603386 293.65048893 301.89469418 287.81429284 298.26171875 282.01953125 C297.66166016 281.06046875 297.06160156 280.10140625 296.44335938 279.11328125 C295.29953769 277.28876479 294.15131333 275.46699871 292.99804688 273.6484375 C292.48693359 272.83246094 291.97582031 272.01648438 291.44921875 271.17578125 C290.99893311 270.46333252 290.54864746 269.75088379 290.0847168 269.0168457 C288.11581973 265.35601774 287.86260087 262.04781274 287.875 257.9375 C287.87242187 257.08027344 287.86984375 256.22304688 287.8671875 255.33984375 C288 253 288 253 289 250 C288.47792969 250.2266333 287.95585937 250.4532666 287.41796875 250.68676758 C284.95219943 251.74556936 282.47641334 252.77885086 280 253.8125 C279.18015625 254.16892578 278.3603125 254.52535156 277.515625 254.89257812 C264.96871468 260.07293125 252.02948573 261.53009003 238.57275391 261.44604492 C236.49932381 261.43749721 234.42863284 261.46653165 232.35546875 261.49804688 C202.24801569 261.65392571 175.08232823 246.5485984 154 226 C136.18257286 208.24632037 122.94827752 181.41664518 122.796875 156.03125 C122.79117493 155.2738855 122.78547485 154.516521 122.77960205 153.73620605 C122.77019198 152.13600034 122.76363403 150.53577559 122.75976562 148.93554688 C122.75013951 146.53479286 122.71911219 144.13492573 122.6875 141.734375 C122.47484873 111.1090284 135.95912532 84.70670468 156.75 62.8125 C171.84700049 48.37702692 190.63899741 37.90369696 211 33 C211.59159912 32.82702393 212.18319824 32.65404785 212.79272461 32.47583008 C219.74612864 30.62164387 226.75094728 30.66250077 233.89916992 30.68432617 C236.03422523 30.68745852 238.16785222 30.66406073 240.30273438 30.63867188 C253.76847331 30.57411384 266.6452341 32.37620627 279.125 37.6875 C280.38364868 38.20969116 280.38364868 38.20969116 281.66772461 38.74243164 C293.76043264 43.88111034 304.05777566 50.34326784 314 59 C314.63292969 59.50015625 315.26585937 60.0003125 315.91796875 60.515625 C335.76669415 76.32193264 348.62535357 104.14641566 352.609375 128.765625 C356.01271573 159.82918969 349.8030481 189.74862457 331 215 C327.5802758 219.24190042 323.84067159 223.1364332 320 227 C319.20722656 227.81855469 318.41445313 228.63710938 317.59765625 229.48046875 C312.38258232 234.80870884 312.38258232 234.80870884 310 236 C310.87011719 236.14695312 310.87011719 236.14695312 311.7578125 236.296875 C321.68817128 238.19773576 326.25027068 243.01409425 332 251 C334.10998345 254.29313614 336.06001871 257.66706685 338 261.0625 C342.73649601 269.21600973 347.6052509 277.26769228 352.625 285.25 C356.99717369 292.20618495 361.35369618 299.1688407 365.625 306.1875 C369.49093609 312.53965141 373.39116131 318.86939691 377.3125 325.1875 C382.51156311 333.56772149 387.65006846 341.98336325 392.76879883 350.4128418 C396.64790475 356.79490871 400.56075279 363.15489979 404.5 369.5 C410.26015395 378.77966247 415.9477953 388.10216702 421.6171875 397.4375 C423.8223265 401.06771166 426.03541917 404.69282589 428.2578125 408.3125 C428.76425293 409.13790283 429.27069336 409.96330566 429.79248047 410.8137207 C430.73548226 412.34953417 431.67973529 413.88458037 432.62548828 415.41870117 C433.25173096 416.43927612 433.25173096 416.43927612 433.890625 417.48046875 C434.25188477 418.06723389 434.61314453 418.65399902 434.98535156 419.25854492 C438.59880674 425.46036778 438.8285727 430.85889924 438 438 C435.41239532 444.97431647 430.06675724 449.32196302 423.6875 452.8125 C417.79302822 454.71071973 412.63562093 455.00704006 406.875 452.5 C399.34350252 448.10646091 394.80370763 440.50607794 390.5625 433.125 C389.5250461 431.35842933 388.48589297 429.59285581 387.4453125 427.828125 C386.89391602 426.89033203 386.34251953 425.95253906 385.77441406 424.98632812 C382.55995556 419.57641392 379.24486848 414.22843566 375.9375 408.875 C369.59492533 398.60138881 363.29602034 388.30257874 357 378 C356.67 395.16 356.34 412.32 356 430 C235.55 430 115.1 430 -9 430 C-9 424.72 -9 419.44 -9 414 C5.19 414 19.38 414 34 414 C34 282.99 34 151.98 34 17 C22.78 17 11.56 17 0 17 C0 11.39 0 5.78 0 0 Z " fill="#000000" transform="translate(23,30)"/>
<path d="M0 0 C0.87011719 0.64839844 1.74023438 1.29679687 2.63671875 1.96484375 C23.20236365 17.8693624 36.54544417 38.94481526 43 64 C43.3196875 65.20398438 43.639375 66.40796875 43.96875 67.6484375 C47.84242481 84.7571679 47.86786134 104.11951309 43 121 C42.6596875 122.21171875 42.319375 123.4234375 41.96875 124.671875 C35.00878058 147.33880245 20.17426804 172.8904198 -1.08984375 184.71875 C-3.15868824 185.72120617 -5.23665938 186.70509194 -7.32421875 187.66796875 C-10.21372365 188.9769036 -10.21372365 188.9769036 -13.0625 191.5625 C-28.78720428 204.61065887 -57.38106966 207.75316572 -77 206 C-93.91030981 203.80190951 -110.86463709 199.92298133 -125 190 C-124.42184008 186.59167224 -123.57576029 183.76711052 -122.05053711 180.66870117 C-121.6501976 179.848228 -121.24985809 179.02775482 -120.83738708 178.18241882 C-120.40507278 177.3114003 -119.97275848 176.44038177 -119.52734375 175.54296875 C-119.0848378 174.64000565 -118.64233185 173.73704254 -118.18641663 172.80671692 C-116.77555669 169.93093127 -115.35665304 167.05920074 -113.9375 164.1875 C-112.97798214 162.23528816 -112.01899155 160.28281707 -111.06054688 158.33007812 C-108.7131353 153.55036321 -106.35911182 148.77394994 -104 144 C-99.39515951 144 -97.32480088 146.81548199 -94.03125 149.8203125 C-91.65222975 152.37318423 -90.60179536 154.56116935 -90 158 C-88.35 158 -86.7 158 -85 158 C-84.30378052 155.68993053 -84.30378052 155.68993053 -84 153 C-84.54720703 152.12988281 -84.54720703 152.12988281 -85.10546875 151.2421875 C-86.47279331 147.81491983 -85.2079188 145.77512961 -83.9375 142.375 C-81.48486897 135.6053983 -79.49868986 128.78735961 -77.70092773 121.81591797 C-76.21081468 116.21081468 -76.21081468 116.21081468 -74 114 C-73.64284912 114.49814209 -73.28569824 114.99628418 -72.91772461 115.50952148 C-71.25947813 117.82016653 -69.59866752 120.1289541 -67.9375 122.4375 C-67.34348389 123.26483643 -66.74946777 124.09217285 -66.13745117 124.94458008 C-63.12903157 129.11770841 -60.0797463 133.21119174 -56.8125 137.1875 C-54.02644224 140.67696838 -52.8381491 143.62299914 -52 148 C-50.35 147.67 -48.7 147.34 -47 147 C-47.11859375 146.47535156 -47.2371875 145.95070312 -47.359375 145.41015625 C-48.83722066 136.52830384 -46.30437733 128.52520711 -44 120 C-40.612801 121.4388102 -38.6405896 123.22119499 -36.25 126 C-35.63640625 126.70125 -35.0228125 127.4025 -34.390625 128.125 C-33 130 -33 130 -33 132 C-32.01 132 -31.02 132 -30 132 C-29.83781982 131.02969849 -29.83781982 131.02969849 -29.67236328 130.03979492 C-28.39840034 122.70440238 -26.7206977 115.52308455 -24.875 108.3125 C-24.59785156 107.21744141 -24.32070313 106.12238281 -24.03515625 104.99414062 C-23.36003585 102.32857906 -22.68160672 99.66390888 -22 97 C-18.7825936 100.78715544 -16.92862076 105.12778037 -14.875 109.60546875 C-14.48683105 110.44410965 -14.09866211 111.28275055 -13.69873047 112.14680481 C-12.87949601 113.92011431 -12.06265467 115.69453109 -11.24804688 117.4699707 C-10.01095888 120.16363786 -8.76387121 122.8525043 -7.515625 125.54101562 C-6.71814038 127.27055237 -5.92124652 129.00036166 -5.125 130.73046875 C-4.57175049 131.92158516 -4.57175049 131.92158516 -4.00732422 133.13676453 C-1.63744781 138.32478492 0.30538406 143.55425577 2 149 C2.66 148.67 3.32 148.34 4 148 C4.75419117 145.04589238 5.38425542 142.13970517 5.953125 139.1484375 C6.13401672 138.23406921 6.31490845 137.31970093 6.50128174 136.37762451 C7.09249851 133.37831327 7.67137815 130.37676421 8.25 127.375 C8.65228214 125.3200101 9.05527964 123.26516012 9.45898438 121.21044922 C10.46272982 116.09137771 11.45649845 110.97042676 12.44750977 105.84887695 C13.11009969 102.4322787 13.77934035 99.0170157 14.45013428 95.60202026 C15.13598646 92.11018023 15.81847355 88.61768657 16.5 85.125 C16.74266602 83.88153809 16.98533203 82.63807617 17.23535156 81.35693359 C18.55211027 74.57637476 18.55211027 74.57637476 19.53125 67.7421875 C19.6859375 66.83726562 19.840625 65.93234375 20 65 C20.66 64.67 21.32 64.34 22 64 C22.33 65.65 22.66 67.3 23 69 C23.99 69 24.98 69 26 69 C24.02 63.555 24.02 63.555 22 58 C17.60281354 59.09929662 17.20002666 59.55450729 14.75 63.0625 C14.22921875 63.79597656 13.7084375 64.52945313 13.171875 65.28515625 C12.78515625 65.85105469 12.3984375 66.41695313 12 67 C13.98 66.01 15.96 65.02 18 64 C17.14394947 70.61797499 15.86715661 77.14506652 14.6015625 83.6953125 C14.36593597 84.91975067 14.13030945 86.14418884 13.88754272 87.4057312 C13.26200054 90.65271846 12.63474384 93.89936927 12.00701904 97.14593506 C11.37709288 100.40929277 10.7515579 103.67349419 10.125 106.9375 C9.63828389 109.46098825 9.1513128 111.98442734 8.6640625 114.5078125 C8.44207184 115.66556183 8.22008118 116.82331116 7.99136353 118.0161438 C6.4971377 125.71982374 4.81281944 133.36511448 3 141 C-0.16336271 139.41831865 -0.91919387 136.21086819 -2.30078125 133.10546875 C-2.61903366 132.4028743 -2.93728607 131.70027985 -3.2651825 130.97639465 C-3.94140654 129.48048005 -4.61456057 127.98317453 -5.28491211 126.48461914 C-6.29244665 124.23232821 -7.30834269 121.98398259 -8.32617188 119.73632812 C-9.94289866 116.15762128 -11.54150677 112.57131288 -13.12652588 108.97845459 C-13.94480097 107.12502806 -14.76976814 105.27456011 -15.59521484 103.42431641 C-16.05234863 102.3729248 -16.50948242 101.3215332 -16.98046875 100.23828125 C-17.37516357 99.33762939 -17.7698584 98.43697754 -18.17651367 97.5090332 C-19.04686214 94.85721845 -19.16103113 92.77179116 -19 90 C-20.65614657 89.61781233 -22.32457024 89.28604898 -24 89 C-24.33 89.33 -24.66 89.66 -25 90 C-24.9484375 91.20527344 -24.896875 92.41054687 -24.84375 93.65234375 C-24.76743675 100.5300755 -26.75072831 106.960519 -28.5 113.5625 C-28.83823116 114.87018664 -29.17547852 116.17812815 -29.51171875 117.48632812 C-30.33153451 120.66018626 -31.16117056 123.8311242 -32 127 C-33.16789062 125.82244141 -33.16789062 125.82244141 -34.359375 124.62109375 C-35.9410553 123.05111227 -37.56125405 121.5166979 -39.25 120.0625 C-41.47090625 117.44500335 -41.6937722 115.36850575 -42 112 C-43.65 112 -45.3 112 -47 112 C-47.38218767 113.65614657 -47.71395102 115.32457024 -48 117 C-47.67 117.33 -47.34 117.66 -47 118 C-47.05625017 125.62189833 -48.77213907 132.75594904 -51 140 C-55.40585665 135.84991405 -58.99226101 131.2687111 -62.625 126.4375 C-63.19734375 125.68275391 -63.7696875 124.92800781 -64.359375 124.15039062 C-65.91042865 122.10336052 -67.45691624 120.05304212 -69 118 C-69.54188965 117.33621338 -70.0837793 116.67242676 -70.64208984 115.98852539 C-72.58400763 113.14477847 -72.67546268 110.37518809 -73 107 C-74.65 107 -76.3 107 -78 107 C-78.93437899 110.35792469 -78.93437899 110.35792469 -78.39672852 113.69628906 C-77.78766802 117.2329628 -79.02240791 120.26646313 -80.08984375 123.609375 C-80.31321915 124.33618469 -80.53659454 125.06299438 -80.76673889 125.81182861 C-81.4808526 128.12761224 -82.20895026 130.43872219 -82.9375 132.75 C-83.42475697 134.32132686 -83.91109606 135.89293866 -84.39648438 137.46484375 C-85.58703915 141.31328063 -86.79015225 145.15758682 -88 149 C-93.15626188 149 -94.66723159 147.37371578 -98.359375 144.0234375 C-100 142 -100 142 -100.5 138.0625 C-100.335 137.051875 -100.17 136.04125 -100 135 C-101.98 135 -103.96 135 -106 135 C-106.79953138 138.28696233 -107.09658936 139.71023192 -106 143 C-107.05668067 145.62283911 -108.17868025 148.07817753 -109.4453125 150.59765625 C-109.81220184 151.34655624 -110.17909119 152.09545624 -110.55709839 152.86705017 C-111.73716588 155.27020991 -112.93087013 157.66630184 -114.125 160.0625 C-114.90715011 161.64994745 -115.68841033 163.23783369 -116.46875 164.82617188 C-118.63282537 169.22395956 -120.81278501 173.6136815 -123 178 C-123.55139648 179.10585449 -124.10279297 180.21170898 -124.67089844 181.35107422 C-125.77858539 183.5684024 -126.88778185 185.78494219 -128 188 C-152.67110258 174.70832593 -168.75739865 149.7994041 -176.75 123.5625 C-185.14889541 94.295605 -181.87469177 63.09905526 -167.24121094 36.34301758 C-163.44501275 29.74236463 -158.86403881 23.83989613 -154 18 C-153.28070313 17.11570313 -152.56140625 16.23140625 -151.8203125 15.3203125 C-138.84212399 0.06024469 -120.77615628 -10.52123163 -102 -17 C-101.34563965 -17.2273584 -100.6912793 -17.4547168 -100.01708984 -17.68896484 C-67.10815245 -28.44908737 -27.30195853 -20.42650192 0 0 Z " fill="#FDFDFD" transform="translate(328,84)"/>
<path d="M0 0 C6.11378695 2.03792898 9.6684001 5.90304477 12.89453125 11.3515625 C13.56315186 12.46829346 14.23177246 13.58502441 14.9206543 14.7355957 C15.63463246 15.94871305 16.34858024 17.16184828 17.0625 18.375 C17.81375328 19.63501925 18.56613151 20.8943684 19.31958008 22.15307617 C20.4817077 24.09478947 21.64314458 26.03687813 22.8011322 27.98106384 C26.61464953 34.38219124 30.51931155 40.72487583 34.4375 47.0625 C40.0456407 56.15427767 45.61669674 65.26762776 51.15942383 74.39941406 C54.55696783 79.99009974 57.98589006 85.55975577 61.44580078 91.11206055 C63.0782375 93.7372979 64.69866502 96.36959438 66.31640625 99.00390625 C68.11720462 101.93626764 69.95274759 104.83740896 71.83984375 107.71484375 C76.67463801 115.2713122 79.0783577 121.71718645 77.25 130.75 C74.54944538 137.73302409 69.38641374 142.03384909 62.9375 145.5625 C57.04302822 147.46071973 51.88562093 147.75704006 46.125 145.25 C38.59345873 140.85643537 34.05379587 133.25606445 29.8125 125.875 C28.77113011 124.10192457 27.72807299 122.32983932 26.68359375 120.55859375 C26.13171387 119.61999512 25.57983398 118.68139648 25.01123047 117.71435547 C21.86333154 112.4160759 18.6149447 107.17981062 15.375 101.9375 C8.537956 90.85419783 1.75097911 79.74148961 -5.01025391 68.61181641 C-7.42078238 64.64658841 -9.83604777 60.68425861 -12.25292969 56.72290039 C-13.44635089 54.76225683 -14.63589615 52.79924805 -15.82128906 50.83374023 C-18.35027341 46.64470277 -20.89468967 42.48839499 -23.62890625 38.4296875 C-28.79069687 30.65687817 -31.55952928 24.31837426 -29.75 14.75 C-28.06896363 7.90006269 -23.73614016 4.83889545 -17.9921875 1.09765625 C-12.19724543 -2.38536642 -6.3899715 -1.96943845 0 0 Z " fill="#B70909" transform="translate(383.75,337.25)"/>
<path d="M0 0 C2.13505531 0.00313235 4.26868229 -0.02026544 6.40356445 -0.0456543 C19.86930339 -0.11021234 32.74606418 1.6918801 45.22583008 7.00317383 C46.0649292 7.35130127 46.90402832 7.69942871 47.76855469 8.05810547 C59.86126271 13.19678417 70.15860574 19.65894167 80.10083008 28.31567383 C81.05022461 29.0659082 81.05022461 29.0659082 82.01879883 29.83129883 C101.86752423 45.63760647 114.72618365 73.46208949 118.71020508 98.08129883 C122.1135458 129.14486352 115.90387818 159.06429839 97.10083008 184.31567383 C93.68110588 188.55757424 89.94150167 192.45210703 86.10083008 196.31567383 C85.30805664 197.13422852 84.5152832 197.9527832 83.69848633 198.79614258 C78.4834124 204.12438267 78.4834124 204.12438267 76.10083008 205.31567383 C76.97094727 205.46262695 76.97094727 205.46262695 77.85864258 205.61254883 C87.78900136 207.51340958 92.35110076 212.32976808 98.10083008 220.31567383 C100.21081202 223.60880761 102.16088337 226.9827233 104.10083008 230.37817383 C108.8978048 238.63683912 113.83309448 246.79060657 118.91333008 254.87817383 C119.54561523 255.88710693 120.17790039 256.89604004 120.8293457 257.93554688 C123.49337683 262.18178511 126.16598698 266.42205064 128.86254883 270.64770508 C129.60866482 271.82868061 130.35476089 273.00966873 131.10083008 274.19067383 C131.71958008 275.1574707 132.33833008 276.12426758 132.97583008 277.12036133 C133.34708008 277.84481445 133.71833008 278.56926758 134.10083008 279.31567383 C133.77083008 279.97567383 133.44083008 280.63567383 133.10083008 281.31567383 C132.21395508 280.67629883 131.32708008 280.03692383 130.41333008 279.37817383 C127.24190839 277.40351504 125.72986335 276.65325832 122.10083008 276.31567383 C121.14756836 276.1687207 121.14756836 276.1687207 120.17504883 276.01879883 C113.80345826 275.43030378 109.65104227 277.65681855 104.49536133 281.27661133 C98.76616559 286.15530656 97.97104435 290.98442305 97.35083008 298.31567383 C97.25086818 300.3149117 97.16183025 302.31486813 97.10083008 304.31567383 C94.94759576 301.53879053 93.08355435 298.71059917 91.31567383 295.67504883 C90.52809692 294.32975098 90.52809692 294.32975098 89.72460938 292.95727539 C89.16813721 292.00304687 88.61166504 291.04881836 88.03833008 290.06567383 C84.19469639 283.51848079 80.33658138 276.98871405 76.28833008 270.56567383 C75.90999023 269.96432617 75.53165039 269.36297852 75.1418457 268.7434082 C74.30333664 267.4107054 73.46479273 266.07802452 72.6262207 264.74536133 C69.617972 259.95373343 66.62338018 255.15383162 63.64297485 250.34484863 C62.91122978 249.16627754 62.17750908 247.98893058 61.44174194 246.81286621 C60.4051394 245.15545828 59.37589543 243.49345505 58.34692383 241.83129883 C57.74549561 240.86482422 57.14406738 239.89834961 56.52441406 238.90258789 C54.34061521 234.93422352 53.9622972 231.73932209 53.97583008 227.25317383 C53.97325195 226.39594727 53.97067383 225.5387207 53.96801758 224.65551758 C54.10083008 222.31567383 54.10083008 222.31567383 55.10083008 219.31567383 C54.57875977 219.54230713 54.05668945 219.76894043 53.51879883 220.00244141 C51.0530295 221.06124319 48.57724342 222.09452469 46.10083008 223.12817383 C45.28098633 223.48459961 44.46114258 223.84102539 43.61645508 224.20825195 C31.06954476 229.38860508 18.1303158 230.84576386 4.67358398 230.76171875 C2.60015388 230.75317104 0.52946292 230.78220548 -1.54370117 230.8137207 C-31.65115423 230.96959953 -58.8168417 215.86427223 -79.89916992 195.31567383 C-97.71659706 177.5619942 -110.9508924 150.73231901 -111.10229492 125.34692383 C-111.107995 124.58955933 -111.11369507 123.83219482 -111.11956787 123.05187988 C-111.12897795 121.45167416 -111.1355359 119.85144941 -111.1394043 118.2512207 C-111.14903042 115.85046669 -111.18005773 113.45059956 -111.21166992 111.05004883 C-111.42432119 80.42470222 -97.9400446 54.0223785 -77.14916992 32.12817383 C-62.05216943 17.69270074 -43.26017251 7.21937079 -22.89916992 2.31567383 C-22.3075708 2.14269775 -21.71597168 1.96972168 -21.10644531 1.79150391 C-14.15304128 -0.0626823 -7.14822264 -0.0218254 0 0 Z M-48.89916992 14.31567383 C-49.96651367 14.88415039 -51.03385742 15.45262695 -52.13354492 16.03833008 C-58.95773058 19.84012894 -64.97525111 24.2393897 -70.89916992 29.31567383 C-71.7215918 29.99243164 -72.54401367 30.66918945 -73.39135742 31.36645508 C-93.67789356 48.65108945 -106.99169116 75.92471275 -109.89916992 102.31567383 C-111.55951436 137.27660599 -101.96538534 167.32798998 -79.27416992 193.94067383 C-72.9682876 200.72151844 -65.42011553 205.96889736 -57.89916992 211.31567383 C-55.22865556 208.01879878 -53.39016704 204.54150174 -51.50073242 200.74926758 C-51.18389496 200.11513443 -50.8670575 199.48100128 -50.5406189 198.82765198 C-49.87145302 197.48630744 -49.20422508 196.14399457 -48.53881836 194.80078125 C-47.53844437 192.78198032 -46.53186963 190.76637314 -45.52416992 188.7512207 C-43.62771514 184.9497222 -41.75716812 181.13609475 -39.89916992 177.31567383 C-39.10845093 175.69689331 -39.10845093 175.69689331 -38.30175781 174.04541016 C-37.842771 173.07756592 -37.38378418 172.10972168 -36.91088867 171.11254883 C-36.51345459 170.27949219 -36.11602051 169.44643555 -35.70654297 168.58813477 C-34.47222589 165.11398195 -34.88906046 162.81220657 -35.89916992 159.31567383 C-31.14916992 158.31567383 -31.14916992 158.31567383 -28.89916992 158.31567383 C-29.06416992 159.32629883 -29.22916992 160.33692383 -29.39916992 161.37817383 C-28.75074953 166.48448441 -26.84460697 167.82461113 -23.03979492 171.03051758 C-20.74372974 172.65882437 -20.74372974 172.65882437 -16.89916992 172.31567383 C-15.43617244 167.7687159 -13.99458256 163.21570068 -12.57177734 158.65600586 C-12.0856365 157.10829876 -11.59386082 155.56234919 -11.09619141 154.01831055 C-10.3786161 151.78857305 -9.68206573 149.55313791 -8.98901367 147.31567383 C-8.65316505 146.29485718 -8.65316505 146.29485718 -8.31053162 145.25341797 C-6.78172161 140.21485994 -7.07193137 136.50306747 -7.89916992 131.31567383 C-6.89916992 130.31567383 -6.89916992 130.31567383 -4.33666992 130.25317383 C-3.53229492 130.27379883 -2.72791992 130.29442383 -1.89916992 130.31567383 C-1.86049805 131.29793945 -1.82182617 132.28020508 -1.78198242 133.29223633 C-1.04182891 138.42173227 2.03260025 141.77265181 5.22583008 145.69067383 C5.81388428 146.43438232 6.40193848 147.17809082 7.0078125 147.94433594 C8.16946188 149.41191037 9.33654465 150.87520353 10.50952148 152.33374023 C12.50918957 154.82427499 14.46305953 157.34885387 16.41333008 159.87817383 C17.30838063 161.02461872 18.20381936 162.17076197 19.10083008 163.31567383 C21.82611893 160.59038497 22.04271499 157.65923366 22.72583008 154.00317383 C22.92692383 153.00640625 22.92692383 153.00640625 23.13208008 151.98950195 C24.03914328 147.31072187 24.49457443 143.24064622 23.53833008 138.56567383 C23.32176758 137.45192383 23.32176758 137.45192383 23.10083008 136.31567383 C24.10083008 135.31567383 24.10083008 135.31567383 26.66333008 135.25317383 C27.46770508 135.27379883 28.27208008 135.29442383 29.10083008 135.31567383 C29.28645508 136.30567383 29.47208008 137.29567383 29.66333008 138.31567383 C31.04915522 143.33544044 34.54977735 146.66017837 38.10083008 150.31567383 C40.78197993 145.38047912 41.86343149 140.04191559 43.22583008 134.62817383 C43.50297852 133.57694336 43.78012695 132.52571289 44.06567383 131.44262695 C45.63905286 125.21499124 46.41011737 119.73674692 46.10083008 113.31567383 C47.75697665 112.93348616 49.42540032 112.60172281 51.10083008 112.31567383 C51.43083008 112.64567383 51.76083008 112.97567383 52.10083008 113.31567383 C52.04241943 114.14260742 51.98400879 114.96954102 51.92382812 115.8215332 C52.16341728 120.55118841 53.9089984 123.99170745 55.93286133 128.22192383 C56.32527512 129.06484985 56.7176889 129.90777588 57.12199402 130.77624512 C58.37512239 133.46119396 59.64401845 136.13834379 60.91333008 138.81567383 C61.75615763 140.61597292 62.59796546 142.41674977 63.4387207 144.21801758 C66.58967869 150.95271827 69.74513197 157.67986536 73.10083008 164.31567383 C74.81945533 161.21777551 75.65289901 158.34646413 76.36254883 154.88208008 C76.59111572 153.77558105 76.81968262 152.66908203 77.05517578 151.52905273 C77.41808716 149.72186768 77.41808716 149.72186768 77.78833008 147.87817383 C78.04380615 146.62439941 78.29928223 145.370625 78.5625 144.07885742 C80.76480492 133.21619486 82.84787697 122.33005547 84.91333008 111.44067383 C85.06603363 110.63663116 85.21873718 109.8325885 85.37606812 109.00418091 C85.8137818 106.69434221 86.24888597 104.38403003 86.68286133 102.07348633 C86.87623581 101.05165001 86.87623581 101.05165001 87.07351685 100.00917053 C87.86158465 95.78834449 88.52055751 91.56871016 89.10083008 87.31567383 C86.13083008 88.80067383 86.13083008 88.80067383 83.10083008 90.31567383 C84.19331604 88.80714526 85.30021507 87.30904552 86.41333008 85.81567383 C87.02821289 84.98036133 87.6430957 84.14504883 88.27661133 83.28442383 C89.17959961 82.30989258 89.17959961 82.30989258 90.10083008 81.31567383 C91.09083008 81.31567383 92.08083008 81.31567383 93.10083008 81.31567383 C95.08083008 86.76067383 95.08083008 86.76067383 97.10083008 92.31567383 C96.11083008 92.31567383 95.12083008 92.31567383 94.10083008 92.31567383 C93.77083008 90.66567383 93.44083008 89.01567383 93.10083008 87.31567383 C92.11083008 87.81067383 92.11083008 87.81067383 91.10083008 88.31567383 C90.52419226 90.22434964 90.52419226 90.22434964 90.20629883 92.56567383 C90.05829834 93.47027344 89.91029785 94.37487305 89.7578125 95.30688477 C89.6028833 96.29978516 89.4479541 97.29268555 89.28833008 98.31567383 C88.93680981 100.44632046 88.58255409 102.57651725 88.22583008 104.70629883 C88.04149414 105.80780273 87.8571582 106.90930664 87.66723633 108.04418945 C86.43904835 115.13803381 84.96806895 122.18384718 83.53051758 129.23754883 C82.58291108 133.88992965 81.66447194 138.5470236 80.76585388 143.20904541 C80.14178346 146.44392093 79.51109614 149.67749258 78.8800354 152.91101074 C78.56957888 154.51061395 78.26208995 156.11079606 77.95761108 157.71154785 C77.53014868 159.9562009 77.09205492 162.19853737 76.65161133 164.44067383 C76.46122787 165.46224579 76.46122787 165.46224579 76.26699829 166.50445557 C75.94372015 168.12265727 75.53060372 169.72244437 75.10083008 171.31567383 C74.44083008 171.64567383 73.78083008 171.97567383 73.10083008 172.31567383 C72.58649414 170.57930664 72.58649414 170.57930664 72.06176758 168.80786133 C69.59649969 161.4178379 66.0725907 154.46114041 62.72583008 147.44067383 C61.72908959 145.33811377 60.73380309 143.2348702 59.7387085 141.13153076 C59.09514025 139.77142562 58.45098565 138.41159776 57.80621338 137.05206299 C55.17672666 131.50073362 52.61641985 125.91959261 50.10083008 120.31567383 C48.22805805 123.67323528 47.30327244 127.00372315 46.37426758 130.72583008 C46.06489258 131.96268555 45.75551758 133.19954102 45.43676758 134.47387695 C45.27917969 135.11462158 45.1215918 135.75536621 44.95922852 136.41552734 C44.47619601 138.37668813 43.98438136 140.33549481 43.49145508 142.29418945 C41.75415943 148.73133261 41.75415943 148.73133261 41.10083008 155.31567383 C40.11083008 155.31567383 39.12083008 155.31567383 38.10083008 155.31567383 C37.84301758 154.74333008 37.58520508 154.17098633 37.31958008 153.58129883 C35.98717066 151.10438388 34.4502689 149.18155722 32.60083008 147.06567383 C31.99239258 146.35926758 31.38395508 145.65286133 30.75708008 144.92504883 C29.2466664 143.08337878 29.2466664 143.08337878 27.10083008 143.31567383 C26.42719636 146.04328894 25.76173564 148.77247283 25.10083008 151.50317383 C24.91004883 152.27209961 24.71926758 153.04102539 24.52270508 153.83325195 C23.11321802 159.69772488 22.74333519 164.37663369 24.10083008 170.31567383 C22.45083008 170.64567383 20.80083008 170.97567383 19.10083008 171.31567383 C18.72442383 170.1580957 18.34801758 169.00051758 17.96020508 167.80786133 C16.17061145 163.04469234 13.4876363 159.40500497 10.35083008 155.44067383 C9.27668862 154.04838872 8.20376946 152.65515975 7.13208008 151.26098633 C6.35477539 150.25600098 6.35477539 150.25600098 5.56176758 149.23071289 C2.60530622 145.35529797 -0.15123511 141.34081778 -2.89916992 137.31567383 C-5.06761111 139.48411501 -5.43260095 140.54697638 -6.26635742 143.42895508 C-6.51063477 144.25911133 -6.75491211 145.08926758 -7.0065918 145.94458008 C-7.25989258 146.83016602 -7.51319336 147.71575195 -7.77416992 148.62817383 C-8.30196324 150.44743179 -8.83061064 152.26644218 -9.36010742 154.08520508 C-9.61888672 154.97675293 -9.87766602 155.86830078 -10.14428711 156.78686523 C-10.80624859 159.00439339 -11.50882936 161.19810849 -12.25073242 163.38989258 C-12.6297168 164.52040039 -13.00870117 165.6509082 -13.39916992 166.81567383 C-13.73948242 167.79536133 -14.07979492 168.77504883 -14.43041992 169.78442383 C-14.98789687 172.79479937 -14.40769827 173.73906337 -12.89916992 176.31567383 C-13.27416992 179.06567383 -13.27416992 179.06567383 -13.89916992 181.31567383 C-15.54916992 181.31567383 -17.19916992 181.31567383 -18.89916992 181.31567383 C-19.36323242 179.83067383 -19.36323242 179.83067383 -19.83666992 178.31567383 C-22.04172545 173.03002601 -26.54431792 169.83059631 -30.89916992 166.31567383 C-33.38552854 168.56570707 -34.80058929 170.75469134 -36.28198242 173.75317383 C-36.94375488 175.08276123 -36.94375488 175.08276123 -37.61889648 176.43920898 C-38.08263672 177.38844238 -38.54637695 178.33767578 -39.02416992 179.31567383 C-39.50337891 180.28939941 -39.98258789 181.263125 -40.47631836 182.26635742 C-41.46642441 184.28354309 -42.45337398 186.30228095 -43.43725586 188.32250977 C-44.829853 191.17375241 -46.24159734 194.01475542 -47.65698242 196.85473633 C-48.48878825 198.54952082 -49.31956928 200.2448088 -50.14916992 201.94067383 C-50.54378418 202.72700195 -50.93839844 203.51333008 -51.3449707 204.32348633 C-51.6980127 205.05567383 -52.05105469 205.78786133 -52.41479492 206.54223633 C-52.72707031 207.17726074 -53.0393457 207.81228516 -53.36108398 208.46655273 C-54.04735963 210.82492465 -53.82908219 212.05409676 -52.89916992 214.31567383 C-50.60199512 215.8563124 -48.49641383 217.06151248 -46.02416992 218.25317383 C-45.31744141 218.59944824 -44.61071289 218.94572266 -43.88256836 219.30249023 C-35.55159296 223.19935389 -26.85318365 225.36552176 -17.89916992 227.31567383 C-16.83053711 227.56188477 -15.7619043 227.8080957 -14.66088867 228.06176758 C9.28939304 232.86507442 37.16072434 227.69792198 58.10083008 215.31567383 C60.21453469 213.82647285 62.24392936 212.27636929 64.26098633 210.65942383 C66.07115081 209.33735041 67.72673925 208.54788415 69.78833008 207.69067383 C89.23967582 198.44268627 103.47180342 174.5572025 110.81958008 155.16723633 C113.05863268 148.68135791 114.66565867 142.02050027 116.10083008 135.31567383 C116.29418945 134.42235352 116.48754883 133.5290332 116.68676758 132.60864258 C118.76693576 116.06541823 117.39874713 99.3637891 113.10083008 83.31567383 C112.66770508 81.66438477 112.66770508 81.66438477 112.22583008 79.97973633 C103.76157806 51.79075416 82.61896722 28.12236354 57.00170898 14.17260742 C24.28110385 -2.64121098 -16.39914353 -3.25701486 -48.89916992 14.31567383 Z " fill="#010101" transform="translate(256.899169921875,60.684326171875)"/>
<path d="M0 0 C0.33 0 0.66 0 1 0 C1.33 17.16 1.66 34.32 2 52 C3.32 52.66 4.64 53.32 6 54 C10 58.44444444 10 58.44444444 10 61 C9.34 61 8.68 61 8 61 C7.01 59.68 6.02 58.36 5 57 C4.67 168.87 4.34 280.74 4 396 C5.98 395.67 7.96 395.34 10 395 C11.43637698 393.04836882 11.43637698 393.04836882 12 391 C12.66 391 13.32 391 14 391 C13.67 392.65 13.34 394.3 13 396 C16.25031784 395.86076462 19.50016061 395.71245815 22.75 395.5625 C23.67039063 395.52318359 24.59078125 395.48386719 25.5390625 395.44335938 C26.42851562 395.40146484 27.31796875 395.35957031 28.234375 395.31640625 C29.05131836 395.27974854 29.86826172 395.24309082 30.70996094 395.20532227 C32.9034423 395.00865725 34.88396413 394.59699406 37 394 C37 394.66 37 395.32 37 396 C65.71 396 94.42 396 124 396 C124 395.34 124 394.68 124 394 C126.31 393.67 128.62 393.34 131 393 C131 393.66 131 394.32 131 395 C131.66 395.66 132.32 396.32 133 397 C89.11 397 45.22 397 0 397 C0 265.99 0 134.98 0 0 Z " fill="#DDDDDD" transform="translate(124,47)"/>
<path d="M0 0 C1.98 0.495 1.98 0.495 4 1 C4.99 4.63 5.98 8.26 7 12 C6.01 12 5.02 12 4 12 C3.01 10.02 3.01 10.02 2 8 C1.90501221 8.56581787 1.81002441 9.13163574 1.7121582 9.71459961 C-0.69021563 23.95062495 -3.36442334 38.11233757 -6.2421875 52.25927734 C-7.61860133 59.05354689 -8.97305053 65.85222068 -10.33065796 72.65026855 C-11.10121359 76.50787823 -11.87290423 80.36526077 -12.64453125 84.22265625 C-12.90861562 85.54304901 -13.17269498 86.86344278 -13.43676758 88.18383789 C-13.62263428 89.11317139 -13.80850098 90.04250488 -14 91 C-14.99 91.33 -15.98 91.66 -17 92 C-19.47234436 86.64741091 -21.94425041 81.29461968 -24.41577148 75.94165039 C-25.25452173 74.12519014 -26.09338636 72.3087827 -26.93237305 70.49243164 C-35.87374894 51.13453923 -35.87374894 51.13453923 -40 42 C-43.06947754 52.98218809 -46.08916613 63.97460691 -49 75 C-49.99 75 -50.98 75 -52 75 C-54.19140625 72.62890625 -54.19140625 72.62890625 -56.5625 69.5625 C-59.30866466 65.7187073 -59.30866466 65.7187073 -63 63 C-63.07347656 63.8353125 -63.07347656 63.8353125 -63.1484375 64.6875 C-63.53534168 68.63659098 -64.03019119 72.41361834 -65.0625 76.25 C-66.1237307 80.49492279 -66.36014791 83.45136397 -65.375 87.6875 C-65.25125 88.450625 -65.1275 89.21375 -65 90 C-67 92 -67 92 -69.4375 92.125 C-70.7059375 91.568125 -70.7059375 91.568125 -72 91 C-72.69600282 89.08389585 -73.38870783 87.16649409 -74.06030273 85.24169922 C-75.67964759 81.37866351 -78.23490487 78.27070312 -80.8125 75 C-81.83984375 73.66666667 -82.8671875 72.33333333 -83.89453125 71 C-84.40064941 70.3503125 -84.90676758 69.700625 -85.42822266 69.03125 C-87.99226673 65.7176671 -90.49585648 62.35895818 -93 59 C-95.31091753 62.4663763 -96.26579848 65.91480736 -97.375 69.875 C-99.91219998 78.81583682 -99.91219998 78.81583682 -101.28515625 82.87109375 C-101.85556641 84.57458984 -101.85556641 84.57458984 -102.4375 86.3125 C-102.96150391 87.82263672 -102.96150391 87.82263672 -103.49609375 89.36328125 C-104.08666737 92.45349208 -103.56609585 93.36714321 -102 96 C-102.52631579 100.52631579 -102.52631579 100.52631579 -104 102 C-106.4375 102.1875 -106.4375 102.1875 -109 102 C-111 100 -111 100 -111.625 97.3125 C-113.58870332 92.58176018 -117.03763106 90.11460628 -121 87 C-124.25751372 90.85587234 -126.23739031 95.30372786 -128.4140625 99.81640625 C-129.03672501 101.09571266 -129.03672501 101.09571266 -129.67196655 102.40086365 C-130.54633858 104.19945512 -131.41866023 105.99904462 -132.2890625 107.79956055 C-133.62289213 110.55814059 -134.9632395 113.31347725 -136.3046875 116.06835938 C-137.15402991 117.81752189 -138.00300101 119.56686476 -138.8515625 121.31640625 C-139.25259186 122.14145157 -139.65362122 122.96649689 -140.06680298 123.81654358 C-140.43743866 124.58421555 -140.80807434 125.35188751 -141.18994141 126.14282227 C-141.51620514 126.81692642 -141.84246887 127.49103058 -142.17861938 128.18556213 C-143.11238374 130.16522532 -143.11238374 130.16522532 -144 133 C-144.99 133.33 -145.98 133.66 -147 134 C-146.48512432 128.72545921 -145.21482964 124.84344795 -142.796875 120.140625 C-142.47720764 119.51073669 -142.15754028 118.88084839 -141.82818604 118.23187256 C-140.81156085 116.23292378 -139.7814779 114.24131866 -138.75 112.25 C-133.26217645 101.58044602 -133.26217645 101.58044602 -127.99609375 90.80078125 C-127.5983374 89.96458252 -127.20058105 89.12838379 -126.79077148 88.2668457 C-125.59224733 84.83112579 -126.18330395 82.48951948 -127 79 C-126.01 78.01 -126.01 78.01 -125 77 C-121.875 77.375 -121.875 77.375 -119 78 C-117.875 82.75 -117.875 82.75 -119 85 C-118.443125 85.226875 -117.88625 85.45375 -117.3125 85.6875 C-114.380779 87.35144976 -112.3740994 89.6259006 -110 92 C-109.34 92 -108.68 92 -108 92 C-106.53700252 87.45304207 -105.09541264 82.90002685 -103.67260742 78.34033203 C-103.18646658 76.79262493 -102.6946909 75.24667536 -102.19702148 73.70263672 C-101.47944618 71.47289922 -100.78289581 69.23746408 -100.08984375 67 C-99.86594467 66.31945557 -99.64204559 65.63891113 -99.41136169 64.93774414 C-98.29116062 61.2458543 -97.91162523 58.4643061 -98.49438477 54.625 C-98.74466431 52.830625 -98.74466431 52.830625 -99 51 C-97 49 -97 49 -94.4375 48.8125 C-92 49 -92 49 -91 50 C-90.94199219 51.00160156 -90.88398438 52.00320312 -90.82421875 53.03515625 C-90.14655647 58.17464133 -87.00455267 61.52749943 -83.8125 65.4375 C-82.67284738 66.87343631 -81.53352309 68.30963325 -80.39453125 69.74609375 C-79.55462646 70.79192627 -79.55462646 70.79192627 -78.69775391 71.85888672 C-76.05998121 75.18549968 -73.52636797 78.58839729 -71 82 C-69.49816582 78.51675433 -68.53562805 75.23307278 -67.875 71.5 C-67.70742188 70.5821875 -67.53984375 69.664375 -67.3671875 68.71875 C-66.87277027 65.05795859 -66.78698431 61.91596745 -67.625 58.3125 C-67.810625 57.1678125 -67.810625 57.1678125 -68 56 C-66 54 -66 54 -63.375 53.875 C-62.59125 53.91625 -61.8075 53.9575 -61 54 C-60.4140625 55.85546875 -59.828125 57.7109375 -59.2421875 59.56640625 C-57.39699208 63.18136457 -54.71370169 66.00621199 -52 69 C-50.8149121 64.69234955 -49.65531962 60.37822096 -48.5 56.0625 C-48.16613281 54.85013672 -47.83226562 53.63777344 -47.48828125 52.38867188 C-45.70265539 45.66524388 -44.82652311 39.93184731 -45 33 C-44.01 32.01 -44.01 32.01 -43 31 C-38.44444444 31.55555556 -38.44444444 31.55555556 -37 33 C-37.05913574 33.8262085 -37.11827148 34.65241699 -37.17919922 35.50366211 C-36.93597311 40.24922216 -35.17044397 43.70039675 -33.1328125 47.94140625 C-32.54063431 49.2093528 -32.54063431 49.2093528 -31.93649292 50.50291443 C-30.67668952 53.1946205 -29.4013484 55.87860557 -28.125 58.5625 C-26.85932541 61.25151691 -25.59683492 63.94200939 -24.33493042 66.63279724 C-23.54989891 68.30367216 -22.76203792 69.97322143 -21.97097778 71.64125061 C-20.19710861 75.38901975 -18.47560278 79.12156412 -17 83 C-13.17162592 66.63237765 -9.81493438 50.20141967 -6.6875 33.6875 C-6.51105957 32.75641418 -6.33461914 31.82532837 -6.15283203 30.86602783 C-5.64584217 28.18572649 -5.14062339 25.50510173 -4.63671875 22.82421875 C-4.48591354 22.02206436 -4.33510834 21.21990997 -4.17973328 20.39344788 C-3.40897776 16.26884422 -2.67278366 12.14201801 -2 8 C-2.66 8.66 -3.32 9.32 -4 10 C-4.99 10 -5.98 10 -7 10 C-5.33248852 6.05860922 -2.77289351 3.2107188 0 0 Z " fill="#BE1E1E" transform="translate(347,141)"/>
<path d="M0 0 C4.58448825 0.11564475 6.6541108 2.25315339 9.66992188 5.3671875 C10.21197266 5.94726562 10.75402344 6.52734375 11.3125 7.125 C14.71226882 10.69413762 18.11448221 14.15599521 21.85546875 17.37109375 C26.46290004 21.33914223 30.72642262 25.61578007 35 29.9375 C35.77472656 30.71673828 36.54945313 31.49597656 37.34765625 32.29882812 C39.23410757 34.1969242 41.11816245 36.09733149 43 38 C42.48308594 36.96359375 41.96617187 35.9271875 41.43359375 34.859375 C40.76760881 33.48988484 40.10227825 32.12007632 39.4375 30.75 C39.09525391 30.06808594 38.75300781 29.38617188 38.40039062 28.68359375 C36.61969644 24.97831091 35.6941666 22.92128522 37 19 C37.99 19.33 38.98 19.66 40 20 C40.78375 19.195625 41.5675 18.39125 42.375 17.5625 C45.6354176 14.37971139 46.25491434 14.08550163 50.8125 13.5625 C54.3620677 13.63297878 54.85570985 13.87248778 57.6875 16.375 C61.04402378 21.15861723 65 27.07111672 65 33 C64.01 33 63.02 33 62 33 C60.82823482 30.87767021 59.66245215 28.75242209 58.5 26.625 C58.16613281 26.02171875 57.83226562 25.4184375 57.48828125 24.796875 C55 20.2265625 55 20.2265625 55 18 C49.42547186 17.48921511 49.42547186 17.48921511 44.5 19.625 C42.55343035 22.70706861 42.68357492 24.38748035 43 28 C44.26386211 30.96412126 44.26386211 30.96412126 46 33.75 C49 38.83333333 49 38.83333333 49 41 C46.5433053 42.00419637 44.08481647 43.00350501 41.625 44 C40.57699219 44.42925781 40.57699219 44.42925781 39.5078125 44.8671875 C34.2265625 47 34.2265625 47 32 47 C32 45 32 45 34 43 C32.28836717 41.12649646 30.55892447 39.27808343 28.8125 37.4375 C28.32974609 36.90447266 27.84699219 36.37144531 27.34960938 35.82226562 C25.74047206 34.0819336 25.74047206 34.0819336 23 32 C20.52344476 31.81781574 20.52344476 31.81781574 18 33 C17.40727295 33.21986572 16.8145459 33.43973145 16.20385742 33.66625977 C14.1813724 34.4286638 12.18575185 35.23853487 10.1875 36.0625 C7.815625 37.031875 5.44375 38.00125 3 39 C2.67 44.94 2.34 50.88 2 57 C2.99 57 3.98 57 5 57 C5 57.66 5 58.32 5 59 C2.64561267 60.42944945 1.51967567 61.08661261 -1.25 60.625 C-1.8275 60.41875 -2.405 60.2125 -3 60 C-2.505 59.505 -2.505 59.505 -2 59 C-1.88193643 57.19546343 -1.83264562 55.38638462 -1.81054688 53.578125 C-1.79382935 52.42022461 -1.77711182 51.26232422 -1.7598877 50.06933594 C-1.74631226 48.80895508 -1.73273682 47.54857422 -1.71875 46.25 C-1.6906296 44.28932539 -1.66250391 42.32865084 -1.63405609 40.36798096 C-1.58524932 36.91203962 -1.54282913 33.45601975 -1.5 30 C-1.44894033 25.87983148 -1.39681495 21.75970088 -1.33703613 17.63964844 C-1.3001824 15.07004815 -1.26779046 12.50037956 -1.2401123 9.93066406 C-1.22339478 8.77276367 -1.20667725 7.61486328 -1.18945312 6.421875 C-1.17692505 5.39674805 -1.16439697 4.37162109 -1.15148926 3.31542969 C-1 1 -1 1 0 0 Z " fill="#0E0E0E" transform="translate(176,147)"/>
<path d="M0 0 C2.13505531 0.00313235 4.26868229 -0.02026544 6.40356445 -0.0456543 C19.86930339 -0.11021234 32.74606418 1.6918801 45.22583008 7.00317383 C46.0649292 7.35130127 46.90402832 7.69942871 47.76855469 8.05810547 C59.86126271 13.19678417 70.15860574 19.65894167 80.10083008 28.31567383 C81.05022461 29.0659082 81.05022461 29.0659082 82.01879883 29.83129883 C101.86752423 45.63760647 114.72618365 73.46208949 118.71020508 98.08129883 C122.1135458 129.14486352 115.90387818 159.06429839 97.10083008 184.31567383 C93.68135878 188.55726054 89.94414885 192.45522288 86.10083008 196.31567383 C85.28485352 197.14583008 84.46887695 197.97598633 83.62817383 198.83129883 C81.80032655 200.67526469 79.96052803 202.5039337 78.10083008 204.31567383 C77.44083008 203.65567383 76.78083008 202.99567383 76.10083008 202.31567383 C76.70668945 201.80520508 77.31254883 201.29473633 77.93676758 200.76879883 C98.28765288 183.11049219 109.52165983 161.38041279 115.10083008 135.31567383 C115.29418945 134.42235352 115.48754883 133.5290332 115.68676758 132.60864258 C117.76693576 116.06541823 116.39874713 99.3637891 112.10083008 83.31567383 C111.66770508 81.66438477 111.66770508 81.66438477 111.22583008 79.97973633 C102.86386107 52.13139311 82.29566768 28.96838236 56.99731445 15.16821289 C30.99814859 1.81117122 -1.24539022 -1.65879352 -29.43432617 6.76489258 C-36.23977806 9.03337654 -42.59519873 11.90713127 -48.89916992 15.31567383 C-49.96651367 15.88415039 -51.03385742 16.45262695 -52.13354492 17.03833008 C-58.95800799 20.84028349 -64.96395291 25.25357138 -70.89916992 30.31567383 C-71.64811523 30.91895508 -72.39706055 31.52223633 -73.16870117 32.14379883 C-93.18500759 48.82989665 -106.07324431 76.6649644 -108.89916992 102.31567383 C-110.41997524 134.33840981 -102.78493515 163.00285264 -82.89916992 188.31567383 C-82.2262793 189.18579102 -81.55338867 190.0559082 -80.86010742 190.95239258 C-74.07563078 199.08590609 -65.40389163 205.10885265 -56.89916992 211.31567383 C-57.22916992 211.97567383 -57.55916992 212.63567383 -57.89916992 213.31567383 C-85.0909489 195.68914453 -101.60073699 170.24619657 -109.89916992 139.31567383 C-110.83594929 134.64852016 -111.07399011 130.0927426 -111.10229492 125.34692383 C-111.107995 124.58955933 -111.11369507 123.83219482 -111.11956787 123.05187988 C-111.12897795 121.45167416 -111.1355359 119.85144941 -111.1394043 118.2512207 C-111.14903042 115.85046669 -111.18005773 113.45059956 -111.21166992 111.05004883 C-111.42432119 80.42470222 -97.9400446 54.0223785 -77.14916992 32.12817383 C-62.05216943 17.69270074 -43.26017251 7.21937079 -22.89916992 2.31567383 C-22.3075708 2.14269775 -21.71597168 1.96972168 -21.10644531 1.79150391 C-14.15304128 -0.0626823 -7.14822264 -0.0218254 0 0 Z " fill="#262626" transform="translate(256.899169921875,60.684326171875)"/>
<path d="M0 0 C0.33 0 0.66 0 1 0 C1 130.68 1 261.36 1 396 C3.97 395.67 6.94 395.34 10 395 C10.99 393.02 10.99 393.02 12 391 C12.66 391 13.32 391 14 391 C13.67 392.65 13.34 394.3 13 396 C16.25031784 395.86076462 19.50016061 395.71245815 22.75 395.5625 C23.67039063 395.52318359 24.59078125 395.48386719 25.5390625 395.44335938 C26.42851562 395.40146484 27.31796875 395.35957031 28.234375 395.31640625 C29.05131836 395.27974854 29.86826172 395.24309082 30.70996094 395.20532227 C32.9034423 395.00865725 34.88396413 394.59699406 37 394 C37 394.66 37 395.32 37 396 C65.71 396 94.42 396 124 396 C124 395.34 124 394.68 124 394 C126.31 393.67 128.62 393.34 131 393 C131 393.66 131 394.32 131 395 C131.66 395.66 132.32 396.32 133 397 C89.11 397 45.22 397 0 397 C0 265.99 0 134.98 0 0 Z " fill="#989898" transform="translate(124,47)"/>
<path d="M0 0 C5.72573747 3.91025974 8.32855262 10.78498325 11 17 C11 17.66 11 18.32 11 19 C10.01 19.33 9.02 19.66 8 20 C7.67 19.34 7.34 18.68 7 18 C6.4225 18.78375 5.845 19.5675 5.25 20.375 C2.2439074 23.88210804 0.55082935 24.80614633 -4 25.375 C-7 25 -7 25 -9.375 23.3125 C-11 21 -11 21 -11.6875 18.625 C-10.58528729 14.41655145 -7.49847038 12.39254896 -4 10 C-1.0625 8.625 -1.0625 8.625 1 8 C0.34 6.68 -0.32 5.36 -1 4 C-3.93727294 3.65032465 -6.13527757 3.42148852 -8.6640625 5.11328125 C-10.12525122 6.39092163 -11.56378463 7.69434966 -13 9 C-13.66 9 -14.32 9 -15 9 C-14.66032174 5.82966958 -14.00130809 5.00117393 -11.5625 2.8125 C-7.47053741 -0.081815 -5.0645643 -0.51504044 0 0 Z " fill="#121212" transform="translate(255,149)"/>
<path d="M0 0 C2.5 1.625 2.5 1.625 4 4 C4.58860004 8.04662526 4.39565124 10.24166845 2.5 13.875 C-0.43582554 16.37045171 -2.27929103 16.87433167 -6.05078125 17.16015625 C-8.83348833 16.93151699 -10.64229862 15.42702978 -13 14 C-16.26814404 14.69940936 -16.26814404 14.69940936 -19 16 C-18.505 14.515 -18.505 14.515 -18 13 C-15.9375 12.3125 -15.9375 12.3125 -14 12 C-14.0825 10.948125 -14.165 9.89625 -14.25 8.8125 C-13.96269651 4.43112175 -13.05154419 3.05154419 -10 0 C-6.73072973 -1.63463513 -3.42398677 -0.85938008 0 0 Z " fill="#FCFCFC" transform="translate(242,396)"/>
<path d="M0 0 C2.4375 0.1875 2.4375 0.1875 3.4375 1.1875 C3.52451172 2.68990234 3.52451172 2.68990234 3.61328125 4.22265625 C4.29094353 9.36214133 7.43294733 12.71499943 10.625 16.625 C11.76465262 18.06093631 12.90397691 19.49713325 14.04296875 20.93359375 C14.60290527 21.63081543 15.1628418 22.32803711 15.73974609 23.04638672 C18.37751879 26.37299968 20.91113203 29.77589729 23.4375 33.1875 C24.67012282 30.28203191 25.62179689 27.49638665 26.4375 24.4375 C26.7675 23.365 27.0975 22.2925 27.4375 21.1875 C28.0975 20.8575 28.7575 20.5275 29.4375 20.1875 C29.51154882 24.33423414 29.48479212 28.27062997 28.875 32.375 C28.4826304 35.79422076 28.76083679 37.90085013 29.4375 41.1875 C27.4375 43.1875 27.4375 43.1875 25 43.3125 C24.154375 42.94125 23.30875 42.57 22.4375 42.1875 C21.74149718 40.27139585 21.04879217 38.35399409 20.37719727 36.42919922 C18.75785241 32.56616351 16.20259513 29.45820312 13.625 26.1875 C12.59765625 24.85416667 11.5703125 23.52083333 10.54296875 22.1875 C10.03685059 21.5378125 9.53073242 20.888125 9.00927734 20.21875 C6.44523327 16.9051671 3.94164352 13.54645818 1.4375 10.1875 C0.98375 10.6825 0.53 11.1775 0.0625 11.6875 C-1.5625 13.1875 -1.5625 13.1875 -3.5625 13.1875 C-3.541875 12.300625 -3.52125 11.41375 -3.5 10.5 C-3.44899166 7.25601263 -3.44899166 7.25601263 -4.1875 4.4375 C-4.31125 3.695 -4.435 2.9525 -4.5625 2.1875 C-2.5625 0.1875 -2.5625 0.1875 0 0 Z " fill="#BB1515" transform="translate(252.5625,189.8125)"/>
<path d="M0 0 C2.19642096 3.29463145 3.08477046 6.41413313 4.0625 10.1875 C4.40410156 11.45980469 4.74570312 12.73210937 5.09765625 14.04296875 C12.17457488 43.43801054 5.72700362 74.9716796 -9.8125 100.4375 C-14.44672273 107.72023491 -19.91713808 113.8900228 -26 120 C-26.81597656 120.83015625 -27.63195312 121.6603125 -28.47265625 122.515625 C-30.30050353 124.35959086 -32.14030204 126.18825987 -34 128 C-34.66 127.34 -35.32 126.68 -36 126 C-35.39414062 125.48953125 -34.78828125 124.9790625 -34.1640625 124.453125 C-13.8131772 106.79481837 -2.57917025 85.06473896 3 59 C3.19335938 58.10667969 3.38671875 57.21335938 3.5859375 56.29296875 C5.68145972 39.62763635 4.01716133 23.20042521 0 7 C-1.1253406 2.2506812 -1.1253406 2.2506812 0 0 Z " fill="#2A2A2A" transform="translate(369,137)"/>
<path d="M0 0 C0.75771932 8.17254408 1.18887724 16.35808854 1.375 24.5625 C1.41302734 25.41875977 1.45105469 26.27501953 1.49023438 27.15722656 C1.54982242 31.59303051 1.43763145 33.41993538 -1.31640625 37.0703125 C-4.49350795 39.35486598 -6.17072403 39.44526465 -10 39 C-10 38.34 -10 37.68 -10 37 C-9.030625 36.690625 -8.06125 36.38125 -7.0625 36.0625 C-4.15934208 35.30476658 -4.15934208 35.30476658 -3 34 C-2.49830585 31.16926564 -2.49830585 31.16926564 -3 28 C-5.1028059 25.31273442 -5.1028059 25.31273442 -8 23 C-8.99644531 22.1440625 -9.99289062 21.288125 -11.01953125 20.40625 C-14.15239008 17.87696948 -17.32166637 15.44157669 -20.63671875 13.15625 C-21.08660156 12.7746875 -21.53648437 12.393125 -22 12 C-22 11.34 -22 10.68 -22 10 C-17.1281864 10.43224964 -14.33326877 12.86655932 -10.8125 16 C-7.14750276 19.34380842 -7.14750276 19.34380842 -3 22 C-3 15.07 -3 8.14 -3 1 C-1 0 -1 0 0 0 Z " fill="#1E1E1E" transform="translate(293,128)"/>
<path d="M0 0 C4.28364143 0.60065821 7.3589408 2.16278647 11.125 4.25 C19.65406798 8.73636833 28.64014336 10.92146336 38 13 C39.07121094 13.2475 40.14242187 13.495 41.24609375 13.75 C65.27778865 18.54967277 89.91456514 12.50310779 112 3 C112 3.99 112 4.98 112 6 C107.32013182 7.77433039 102.63604298 9.53634428 97.94384766 11.27783203 C96.41290164 11.84660097 94.88383108 12.42041813 93.35546875 12.99609375 C82.83418966 16.76345342 71.95055896 17.37315462 60.87451172 17.37060547 C58.76577151 17.37496738 56.65915259 17.41140263 54.55078125 17.44921875 C35.71615534 17.60402314 17.20841048 11.52942754 1 2 C0.67 1.34 0.34 0.68 0 0 Z " fill="#242424" transform="translate(201,274)"/>
<path d="M0 0 C3.15731688 1.57865844 4.66599489 2.4113715 7.015625 4.75 C7.54414063 5.2759375 8.07265625 5.801875 8.6171875 6.34375 C9.15601563 6.8903125 9.69484375 7.436875 10.25 8 C10.80429688 8.5465625 11.35859375 9.093125 11.9296875 9.65625 C16 13.7466133 16 13.7466133 16 16 C13.7101766 17.0044134 11.4183401 18.00367612 9.125 19 C8.47402344 19.28617188 7.82304687 19.57234375 7.15234375 19.8671875 C2.2265625 22 2.2265625 22 0 22 C0 14.74 0 7.48 0 0 Z " fill="#F1F1F1" transform="translate(179,160)"/>
<path d="M0 0 C0 0.99 0 1.98 0 3 C-0.93972656 3.22042969 -0.93972656 3.22042969 -1.8984375 3.4453125 C-4.40717493 4.13383034 -6.6700166 4.83713809 -9 6 C-10.68036511 9.02884844 -10.68036511 9.02884844 -11 12 C-10.05125 11.835 -9.1025 11.67 -8.125 11.5 C-4.97840449 11.06243662 -1.86328496 10.84218534 1.3125 10.75 C2.15425781 10.72421875 2.99601562 10.6984375 3.86328125 10.671875 C4.56839844 10.78015625 5.27351563 10.8884375 6 11 C8 14 8 14 8 17.4375 C7 21 7 21 4.5625 23.375 C0.03442638 25.44043709 -4.07023327 25.80514756 -9 26 C-9 25.01 -9 24.02 -9 23 C-8.09507812 22.80083984 -8.09507812 22.80083984 -7.171875 22.59765625 C-6.37265625 22.42105469 -5.5734375 22.24445313 -4.75 22.0625 C-3.96109375 21.88847656 -3.1721875 21.71445313 -2.359375 21.53515625 C-0.23121297 21.052444 1.88532842 20.53836822 4 20 C4 18.35 4 16.7 4 15 C2.87980469 15.03480469 1.75960938 15.06960937 0.60546875 15.10546875 C-0.86717251 15.13360839 -2.33982998 15.16090837 -3.8125 15.1875 C-4.91948242 15.22520508 -4.91948242 15.22520508 -6.04882812 15.26367188 C-11.51254517 15.33783998 -11.51254517 15.33783998 -13.97265625 13.6328125 C-15 12 -15 12 -15.625 9.6875 C-14.64218681 5.46140327 -11.50254404 3.3700298 -8 1 C-5.07175348 0.02391783 -3.04386724 -0.08226668 0 0 Z " fill="#191919" transform="translate(312,121)"/>
<path d="M0 0 C23.89481336 3.41354477 45.51502815 22.92060921 60 41 C64.65014212 47.69123504 68.52459661 54.73609546 72.0625 62.0625 C72.37388916 62.69365723 72.68527832 63.32481445 73.00610352 63.97509766 C74.6353369 67.47934377 75.16439902 69.33783338 74 73 C73.5153125 71.83984375 73.030625 70.6796875 72.53125 69.484375 C66.5057229 55.32962657 59.15334543 43.65821627 49 32 C48.4225 31.32582031 47.845 30.65164062 47.25 29.95703125 C36.80387102 18.64816394 23.038349 10.89446467 9 5 C7.18601075 4.19083036 5.37325054 3.37889143 3.5625 2.5625 C2.386875 2.046875 1.21125 1.53125 0 1 C0 0.67 0 0.34 0 0 Z " fill="#1F1F1F" transform="translate(294,66)"/>
<path d="M0 0 C0.66 0 1.32 0 2 0 C1.67 1.65 1.34 3.3 1 5 C4.25031784 4.86076462 7.50016061 4.71245815 10.75 4.5625 C12.13058594 4.50352539 12.13058594 4.50352539 13.5390625 4.44335938 C14.87324219 4.38051758 14.87324219 4.38051758 16.234375 4.31640625 C17.05131836 4.27974854 17.86826172 4.24309082 18.70996094 4.20532227 C20.9034423 4.00865725 22.88396413 3.59699406 25 3 C25 3.66 25 4.32 25 5 C53.71 5 82.42 5 112 5 C112 4.34 112 3.68 112 3 C115.465 2.505 115.465 2.505 119 2 C119 2.66 119 3.32 119 4 C119.99 4.99 119.99 4.99 121 6 C78.43 6 35.86 6 -8 6 C-8 5.67 -8 5.34 -8 5 C-6.576875 4.87625 -6.576875 4.87625 -5.125 4.75 C-1.89538209 4.34925077 -1.89538209 4.34925077 -0.625 1.9375 C-0.41875 1.298125 -0.2125 0.65875 0 0 Z " fill="#BFBFBF" transform="translate(136,438)"/>
<path d="M0 0 C0.66 0 1.32 0 2 0 C2.33 1.32 2.66 2.64 3 4 C4.1446875 3.505 4.1446875 3.505 5.3125 3 C8 2 8 2 11 2 C10 5 10 5 7.9375 6.1875 C7.298125 6.455625 6.65875 6.72375 6 7 C7.54545146 12.47932789 10.15543212 17.11429181 13 22 C14.1446875 21.7525 14.1446875 21.7525 15.3125 21.5 C18 21 18 21 21 21 C20 24 20 24 18.3125 25.25 C15.02964651 26.31470924 13.29108158 26.0749764 10 25 C8.35682247 22.45649192 7.1400152 20.23641247 5.9375 17.5 C4.75218424 14.83609448 3.52387557 12.51336703 2 10 C-0.61510178 8.9129948 -0.61510178 8.9129948 -3 9 C-2.67 8.34 -2.34 7.68 -2 7 C-1.34 7 -0.68 7 0 7 C-0.185625 6.030625 -0.37125 5.06125 -0.5625 4.0625 C-0.706875 3.051875 -0.85125 2.04125 -1 1 C-0.67 0.67 -0.34 0.34 0 0 Z " fill="#121212" transform="translate(317,110)"/>
<path d="M0 0 C2.07324367 0.0290596 4.143922 0.02051772 6.21728516 0.00756836 C15.84745207 0.02387193 27.80266721 0.08150939 36.57275391 4.46655273 C36.57275391 5.12655273 36.57275391 5.78655273 36.57275391 6.46655273 C34.67675021 6.15508801 32.78095804 5.84233556 30.88525391 5.52905273 C29.82951172 5.3550293 28.77376953 5.18100586 27.68603516 5.00170898 C25.89092321 4.69313893 24.09916014 4.35684645 22.32470703 3.94580078 C16.93835678 3.00777687 11.43044607 3.24078973 5.9753418 3.22631836 C3.80492752 3.21674969 1.63551889 3.18575961 -0.53466797 3.15405273 C-10.48111824 3.08103257 -19.72673177 4.29761555 -29.42724609 6.46655273 C-29.75724609 5.80655273 -30.08724609 5.14655273 -30.42724609 4.46655273 C-20.16505001 1.4453828 -10.70388773 -0.16271524 0 0 Z " fill="#181818" transform="translate(257.42724609375,60.533447265625)"/>
<path d="M0 0 C0.53367188 0.18175781 1.06734375 0.36351562 1.6171875 0.55078125 C7.37591783 2.4936055 13.16993922 4.28384432 19 6 C15.08022097 10.7772307 15.08022097 10.7772307 11.9921875 11.4140625 C10.94417969 11.48753906 10.94417969 11.48753906 9.875 11.5625 C5.97556292 11.5712056 5.97556292 11.5712056 4.125 14.0625 C3.568125 15.0215625 3.568125 15.0215625 3 16 C2.34 16 1.68 16 1 16 C1.20625 14.906875 1.4125 13.81375 1.625 12.6875 C2.40346525 8.9161599 2.40346525 8.9161599 0 6 C-0.125 2.8125 -0.125 2.8125 0 0 Z " fill="#F8F8F8" transform="translate(212,281)"/>
<path d="M0 0 C3.36370321 1.39187719 5.21906331 2.79431396 7 6 C7.55466566 9.7241837 7.2468968 11.52678113 5.5 14.875 C2.76112567 17.20304318 2.16890388 17.30643811 -1.25 17.3125 C-2.4875 17.209375 -3.725 17.10625 -5 17 C-4.80664062 16.35933594 -4.61328125 15.71867188 -4.4140625 15.05859375 C-2.9059252 10.04889015 -1.42282214 5.03460143 0 0 Z " fill="#FCFCFC" transform="translate(374,199)"/>
<path d="M0 0 C2.5 1.625 2.5 1.625 4 4 C4.58860004 8.04662526 4.39565124 10.24166845 2.5 13.875 C-0.43582554 16.37045171 -2.27929103 16.87433167 -6.05078125 17.16015625 C-8.83348833 16.93151699 -10.64229862 15.42702978 -13 14 C-16.26814404 14.69940936 -16.26814404 14.69940936 -19 16 C-18.505 14.515 -18.505 14.515 -18 13 C-15.9375 12.3125 -15.9375 12.3125 -14 12 C-14.0825 10.948125 -14.165 9.89625 -14.25 8.8125 C-13.96269651 4.43112175 -13.05154419 3.05154419 -10 0 C-6.73072973 -1.63463513 -3.42398677 -0.85938008 0 0 Z M-10.4375 2.5625 C-12.32894058 5.01746545 -12.32894058 5.01746545 -11.9375 8.5625 C-10.96741423 12.5708469 -10.96741423 12.5708469 -8 15 C-4.36968224 15.54068562 -2.67785921 15.46379841 0.375 13.375 C2.48706506 10.28813568 2.61195145 8.6717087 2 5 C0.5 2.5 0.5 2.5 -2 1 C-5.65852292 0.39024618 -7.30512879 0.55456974 -10.4375 2.5625 Z " fill="#D2D2D2" transform="translate(242,396)"/>
<path d="M0 0 C0.66 0 1.32 0 2 0 C3.99880222 4.09101351 5.99249302 8.18446206 7.98144531 12.28027344 C8.65907394 13.67386252 9.33810524 15.06677045 10.01855469 16.45898438 C10.99521741 18.45786843 11.96684344 20.45913137 12.9375 22.4609375 C13.39684937 23.39696304 13.39684937 23.39696304 13.86547852 24.35189819 C16 28.77225659 16 28.77225659 16 31 C15.01 31.33 14.02 31.66 13 32 C10.30864286 26.67876341 7.64177868 21.34602779 5 16 C4.67531738 15.34483398 4.35063477 14.68966797 4.01611328 14.01464844 C3.144979 12.24459249 2.29073859 10.4662515 1.4375 8.6875 C0.94121094 7.66011719 0.44492187 6.63273438 -0.06640625 5.57421875 C-1 3 -1 3 0 0 Z " fill="#171717" transform="translate(261,132)"/>
<path d="M0 0 C1.9474307 5.8422921 -2.39877745 12.62496193 -5 18 C-10.60198061 28.63325006 -17.54183589 37.50413233 -26 46 C-26.81597656 46.83015625 -27.63195312 47.6603125 -28.47265625 48.515625 C-30.30050353 50.35959086 -32.14030204 52.18825987 -34 54 C-34.66 53.34 -35.32 52.68 -36 52 C-35.39414062 51.48953125 -34.78828125 50.9790625 -34.1640625 50.453125 C-19.2047374 37.47303368 -8.93054722 22.32339089 -2.09375 3.8515625 C-1 1 -1 1 0 0 Z " fill="#212121" transform="translate(369,211)"/>
<path d="M0 0 C0.8125 3.1875 0.8125 3.1875 1 7 C-1.0625 9.9375 -1.0625 9.9375 -4 12 C-7.1875 12.4375 -7.1875 12.4375 -10 12 C-10.66 11.34 -11.32 10.68 -12 10 C-11.90234375 7.55078125 -11.90234375 7.55078125 -11 5 C-9.00390625 3.41796875 -9.00390625 3.41796875 -6.5625 2.1875 C-5.75941406 1.76855469 -4.95632812 1.34960938 -4.12890625 0.91796875 C-2 0 -2 0 0 0 Z " fill="#EEEEEE" transform="translate(259,159)"/>
<path d="M0 0 C4.37191742 0.36432645 5.84560541 1.06641193 8.75 4.3125 C9.5625 7.5625 9.5625 7.5625 9.75 10.3125 C3.78435204 9.80478528 -0.88809899 7.92657872 -6.25 5.3125 C-3.85897853 0.37105563 -3.85897853 0.37105563 0 0 Z " fill="#F6F6F6" transform="translate(220.25,274.6875)"/>
<path d="M0 0 C3.43887796 3.1949301 6.04326969 6.77709564 8.6875 10.625 C17.54102304 23.14227303 27.66880022 32.00058125 40 41 C39.505 41.99 39.505 41.99 39 43 C22.74447239 32.4626779 9.63958839 18.8023381 0 2 C0 1.34 0 0.68 0 0 Z " fill="#232323" transform="translate(160,231)"/>
<path d="M0 0 C-2.80338733 15.09057437 -2.80338733 15.09057437 -7.125 18.375 C-8.07375 18.91125 -9.0225 19.4475 -10 20 C-10 16.89448334 -9.4606285 15.64738916 -8 13 C-8.33 12.67 -8.66 12.34 -9 12 C-9.40978211 9.06322823 -9.50936887 6.90260164 -8.0234375 4.26953125 C-5.30172835 0.75468599 -4.58721932 0 0 0 Z " fill="#CFCFCF" transform="translate(372,199)"/>
<path d="M0 0 C0.75 1.6875 0.75 1.6875 1 4 C-0.5625 6.6875 -0.5625 6.6875 -3 9 C-4.98 9.33 -6.96 9.66 -9 10 C-9.33 14.29 -9.66 18.58 -10 23 C-10.33 23 -10.66 23 -11 23 C-11 17.06 -11 11.12 -11 5 C-3 1 -3 1 0 0 Z " fill="#B5B5B5" transform="translate(189,181)"/>
<path d="M0 0 C0.66 0.33 1.32 0.66 2 1 C0.36075962 4.27848077 -3.21028641 4.76091936 -6.5 5.9375 C-7.23541016 6.20401367 -7.97082031 6.47052734 -8.72851562 6.74511719 C-10.18119746 7.26980377 -11.63494962 7.79153802 -13.08984375 8.31005859 C-14.56919339 8.84439424 -16.03725385 9.41003941 -17.5 9.98828125 C-22.34672716 11.83420273 -27.2585372 12.61108607 -32.375 13.3125 C-33.07818359 13.41336914 -33.78136719 13.51423828 -34.50585938 13.61816406 C-38.3688073 14.08747671 -39.65384631 14.23076913 -43 12 C-41.88625 11.84144531 -40.7725 11.68289063 -39.625 11.51953125 C-27.12109726 9.64498036 -15.16453562 6.94386092 -3.625 1.625 C-2.42875 1.08875 -1.2325 0.5525 0 0 Z " fill="#323232" transform="translate(312,277)"/>
<path d="M0 0 C0.66 0.33 1.32 0.66 2 1 C1.37635743 3.83363811 0.75112186 6.66690959 0.125 9.5 C-0.04902344 10.29148438 -0.22304688 11.08296875 -0.40234375 11.8984375 C-1.52135473 16.95470933 -2.72233445 21.98142181 -4 27 C-4.99 26.34 -5.98 25.68 -7 25 C-6.38821421 19.39301477 -5.43345826 14.03104354 -4.0625 8.5625 C-3.80823242 7.48452148 -3.80823242 7.48452148 -3.54882812 6.38476562 C-3.09866522 4.5721325 -2.5564889 2.78286444 -2 1 C-1.34 0.67 -0.68 0.34 0 0 Z " fill="#C32F2F" transform="translate(304,182)"/>
<path d="M0 0 C2.64 1.98 5.28 3.96 8 6 C6.86220425 10.55118301 5.46006283 11.96189605 2 15 C1.34 15 0.68 15 0 15 C1.875 11.125 1.875 11.125 3 10 C-3.27 9.67 -9.54 9.34 -16 9 C-16.33 10.32 -16.66 11.64 -17 13 C-17 11.02 -17 9.04 -17 7 C-6.605 6.505 -6.605 6.505 4 6 C2.68 4.68 1.36 3.36 0 2 C0 1.34 0 0.68 0 0 Z " fill="#D0CECE" transform="translate(478,451)"/>
<path d="M0 0 C1.32 0.33 2.64 0.66 4 1 C4.99 4.63 5.98 8.26 7 12 C6.01 12 5.02 12 4 12 C2.3125 10 2.3125 10 1 8 C0.4225 8.144375 -0.155 8.28875 -0.75 8.4375 C-2.83333333 8.95833333 -4.91666667 9.47916667 -7 10 C-5.33248852 6.05860922 -2.77289351 3.2107188 0 0 Z " fill="#BD1C1C" transform="translate(347,141)"/>
<path d="M0 0 C0.32230346 5.17297057 -0.78379187 9.08817084 -2.5 13.875 C-2.85771484 14.90753906 -2.85771484 14.90753906 -3.22265625 15.9609375 C-3.80688039 17.64350304 -4.40230111 19.32217383 -5 21 C-5.99 21 -6.98 21 -8 21 C-7.35992743 14.11921989 -5.47479101 7.44379546 -3 1 C-1 0 -1 0 0 0 Z " fill="#C02626" transform="translate(251,202)"/>
<path d="M0 0 C0.66 0 1.32 0 2 0 C2.268125 1.11375 2.53625 2.2275 2.8125 3.375 C3.65809019 7.21840951 3.65809019 7.21840951 7 9 C11.50850182 8.65554402 11.50850182 8.65554402 15 6 C17.125 6.375 17.125 6.375 19 7 C16.01501603 9.89170323 13.96695671 11.20556031 9.875 11.5 C5.97729117 11.57761125 5.97729117 11.57761125 4.125 14.0625 C3.568125 15.0215625 3.568125 15.0215625 3 16 C2.34 16 1.68 16 1 16 C1.20625 14.906875 1.4125 13.81375 1.625 12.6875 C2.40346525 8.9161599 2.40346525 8.9161599 0 6 C-0.125 2.8125 -0.125 2.8125 0 0 Z " fill="#D0D0D0" transform="translate(212,281)"/>
<path d="M0 0 C0 0.33 0 0.66 0 1 C-0.67353516 1.01458252 -1.34707031 1.02916504 -2.04101562 1.04418945 C-15.30350886 1.36399906 -28.05841487 1.93336507 -41 5 C-41.33 4.34 -41.66 3.68 -42 3 C-27.97962703 -1.93466299 -14.64741431 -1.06636395 0 0 Z " fill="#4F4F4F" transform="translate(269,62)"/>
<path d="M0 0 C2.17806155 3.26709232 3.17301923 6.38697898 4.1875 10.125 C4.36893555 10.79281494 4.55037109 11.46062988 4.73730469 12.14868164 C6.09328326 17.53030293 6.13379708 21.61446388 5 27 C4.67 27 4.34 27 4 27 C2.66666667 20.33333333 1.33333333 13.66666667 0 7 C-0.30852905 5.67391724 -0.30852905 5.67391724 -0.62329102 4.32104492 C-1 2 -1 2 0 0 Z " fill="#444444" transform="translate(369,137)"/>
<path d="M0 0 C1 3 1 3 0.37915039 4.80932617 C0.03875732 5.46392822 -0.30163574 6.11853027 -0.65234375 6.79296875 C-1.01650391 7.50517578 -1.38066406 8.21738281 -1.75585938 8.95117188 C-2.14580078 9.68916016 -2.53574219 10.42714844 -2.9375 11.1875 C-3.51661133 12.31188477 -3.51661133 12.31188477 -4.10742188 13.45898438 C-5.06271757 15.31060689 -6.03021577 17.15592452 -7 19 C-7.99 19 -8.98 19 -10 19 C-8.21585549 12.39866531 -4.87983506 4.87983506 0 0 Z " fill="#BA1212" transform="translate(219,235)"/>
<path d="M0 0 C3.36370321 1.39187719 5.21906331 2.79431396 7 6 C7.55466566 9.7241837 7.2468968 11.52678113 5.5 14.875 C2.76112567 17.20304318 2.16890388 17.30643811 -1.25 17.3125 C-2.4875 17.209375 -3.725 17.10625 -5 17 C-4.67 16.34 -4.34 15.68 -4 15 C-2.00116131 14.65977214 -0.00109278 14.32670903 2 14 C4.32483785 12.11624325 4.32483785 12.11624325 4.1875 9 C4.20079609 6.07613397 4.20079609 6.07613397 3 4 C1.68 4.33 0.36 4.66 -1 5 C-0.67 3.35 -0.34 1.7 0 0 Z " fill="#D3D3D3" transform="translate(374,199)"/>
<path d="M0 0 C0.66 0.33 1.32 0.66 2 1 C1.73445312 2.11117187 1.46890625 3.22234375 1.1953125 4.3671875 C-0.67234181 12.21998544 -2.51792475 20.06309702 -4 28 C-4.66 27.34 -5.32 26.68 -6 26 C-5.67628188 16.96079394 -3.17174958 8.40667608 0 0 Z " fill="#373737" transform="translate(152,135)"/>
<path d="M0 0 C0 0.99 0 1.98 0 3 C-0.62648438 3.15855469 -1.25296875 3.31710938 -1.8984375 3.48046875 C-7.15624686 4.7905977 -7.15624686 4.7905977 -10.5625 8.6875 C-10.706875 9.450625 -10.85125 10.21375 -11 11 C-11.66 10.01 -12.32 9.02 -13 8 C-13.66 9.32 -14.32 10.64 -15 12 C-15.4375 9.875 -15.4375 9.875 -15 7 C-10.61235886 2.06980109 -6.66403798 -0.18010913 0 0 Z " fill="#262626" transform="translate(312,121)"/>
<path d="M0 0 C4.17259254 3.02956852 8.21339427 6.12768158 12.0625 9.5625 C15.54278537 12.66374439 19.15982816 15.35988186 23 18 C22.67 18.66 22.34 19.32 22 20 C16.0603536 16.14974249 10.60294634 11.94637206 5.375 7.1875 C4.84229492 6.70756592 4.30958984 6.22763184 3.76074219 5.7331543 C2.46491073 4.53282979 1.22666459 3.27092568 0 2 C0 1.34 0 0.68 0 0 Z " fill="#262323" transform="translate(177,254)"/>
<path d="M0 0 C-0.85714286 8.57142857 -0.85714286 8.57142857 -3 12 C-4.5625 10.9375 -4.5625 10.9375 -6 9 C-5.875 5.4375 -5.875 5.4375 -5 2 C-2 0 -2 0 0 0 Z " fill="#FAFAFA" transform="translate(371,201)"/>
<path d="M0 0 C4.37191742 0.36432645 5.84560541 1.06641193 8.75 4.3125 C9.5625 7.5625 9.5625 7.5625 9.75 10.3125 C8.43 9.9825 7.11 9.6525 5.75 9.3125 C6.41 9.3125 7.07 9.3125 7.75 9.3125 C6.63145414 5.58635847 6.63145414 5.58635847 3.75 3.3125 C-0.20562822 3.05452425 -2.84659693 3.21809811 -6.25 5.3125 C-3.85897853 0.37105563 -3.85897853 0.37105563 0 0 Z " fill="#CECECE" transform="translate(220.25,274.6875)"/>
<path d="M0 0 C-0.66 1.65 -1.32 3.3 -2 5 C-4.31 5.33 -6.62 5.66 -9 6 C-9 4.68 -9 3.36 -9 2 C-5.62902617 0.50178941 -3.79557881 0 0 0 Z " fill="#F4F4F4" transform="translate(188,183)"/>
<path d="M0 0 C2.875 0.3125 2.875 0.3125 6 1 C6.66 1.99 7.32 2.98 8 4 C2.25 7 2.25 7 0 7 C0 4.69 0 2.38 0 0 Z " fill="#F7F7F7" transform="translate(179,175)"/>
<path d="M0 0 C0 0.66 0 1.32 0 2 C0.66 2.66 1.32 3.32 2 4 C-5.92 4 -13.84 4 -22 4 C-22 3.67 -22 3.34 -22 3 C-17.05 3 -12.1 3 -7 3 C-7 2.34 -7 1.68 -7 1 C-2.25 0 -2.25 0 0 0 Z " fill="#B0B0B0" transform="translate(255,440)"/>
<path d="M0 0 C0.185625 0.639375 0.37125 1.27875 0.5625 1.9375 C1.94246056 4.42126213 1.94246056 4.42126213 5.625 4.75 C6.73875 4.8325 7.8525 4.915 9 5 C8.67 5.99 8.34 6.98 8 8 C4.625 8.125 4.625 8.125 1 8 C-1 6 -1 6 -1.1875 3.4375 C-1 1 -1 1 0 0 Z " fill="#0C0C0C" transform="translate(299,128)"/>
<path d="M0 0 C0 0.66 0 1.32 0 2 C-3.63 3.32 -7.26 4.64 -11 6 C-10.67 4.68 -10.34 3.36 -10 2 C-3.87234043 -1.29078014 -3.87234043 -1.29078014 0 0 Z " fill="#131313" transform="translate(191,179)"/>
<path d="M0 0 C0 3 0 3 -2.625 5.91796875 C-3.74249406 7.01550756 -4.86785643 8.10507895 -6 9.1875 C-6.57234375 9.74630859 -7.1446875 10.30511719 -7.734375 10.88085938 C-9.14962788 12.26073093 -10.57397155 13.63126734 -12 15 C-12.66 14.34 -13.32 13.68 -14 13 C-13.32453125 12.39671875 -12.6490625 11.7934375 -11.953125 11.171875 C-11.06109375 10.37265625 -10.1690625 9.5734375 -9.25 8.75 C-8.36828125 7.96109375 -7.4865625 7.1721875 -6.578125 6.359375 C-4.32133835 4.29407328 -2.14260074 2.18264936 0 0 Z " fill="#161616" transform="translate(347,250)"/>
<path d="M0 0 C2 3 2 3 1.5390625 6.35546875 C1.23742187 7.62003906 0.93578125 8.88460937 0.625 10.1875 C0.32851563 11.45980469 0.03203125 12.73210937 -0.2734375 14.04296875 C-0.51320313 15.01878906 -0.75296875 15.99460938 -1 17 C-2.87978657 14.26822383 -3.01655381 13.11615725 -2.5390625 9.765625 C-2.23742187 8.60546875 -1.93578125 7.4453125 -1.625 6.25 C-1.18027344 4.49429688 -1.18027344 4.49429688 -0.7265625 2.703125 C-0.48679687 1.81109375 -0.24703125 0.9190625 0 0 Z " fill="#424242" transform="translate(372,196)"/>
<path d="M0 0 C0.33 0 0.66 0 1 0 C1 3.96 1 7.92 1 12 C-2 9 -2 9 -2.3125 6 C-2 3 -2 3 0 0 Z " fill="#D9D9D9" transform="translate(174,176)"/>
<path d="M0 0 C2.64 0 5.28 0 8 0 C8.33 0.66 8.66 1.32 9 2 C6.03 2.66 3.06 3.32 0 4 C0 2.68 0 1.36 0 0 Z " fill="#CCCCCC" transform="translate(278,436)"/>
<path d="M0 0 C-4.79137588 1.6290678 -8.05632546 2.20577428 -13 1 C-13 0.67 -13 0.34 -13 0 C-11.58800422 -0.39222105 -10.17007236 -0.76311059 -8.75 -1.125 C-7.96109375 -1.33382813 -7.1721875 -1.54265625 -6.359375 -1.7578125 C-3.5796929 -2.04314411 -2.34112451 -1.44977894 0 0 Z " fill="#515151" transform="translate(295,287)"/>
<path d="M0 0 C1.27609323 0.90933009 2.54565553 1.82782853 3.8125 2.75 C4.87404297 3.51570313 4.87404297 3.51570313 5.95703125 4.296875 C8.02977691 6.02482358 9.47375854 7.78526476 11 10 C7.43235179 9.42380903 5.74840503 8.13030516 3.25 5.5625 C2.63640625 4.94503906 2.0228125 4.32757813 1.390625 3.69140625 C0 2 0 2 0 0 Z " fill="#1D1D1D" transform="translate(177,254)"/>
<path d="M0 0 C1.20076172 0.31324219 1.20076172 0.31324219 2.42578125 0.6328125 C3.23402344 0.83648437 4.04226563 1.04015625 4.875 1.25 C5.48988281 1.41757813 6.10476563 1.58515625 6.73828125 1.7578125 C6.73828125 2.4178125 6.73828125 3.0778125 6.73828125 3.7578125 C0.79828125 2.7678125 0.79828125 2.7678125 -5.26171875 1.7578125 C-2.26171875 -0.2421875 -2.26171875 -0.2421875 0 0 Z " fill="#464646" transform="translate(287.26171875,63.2421875)"/>
<path d="M0 0 C0 1.32 0 2.64 0 4 C-2.64 3.67 -5.28 3.34 -8 3 C-8 2.34 -8 1.68 -8 1 C-5.07175348 0.02391783 -3.04386724 -0.08226668 0 0 Z " fill="#D6D6D6" transform="translate(271,438)"/>
<path d="M0 0 C1.9078584 3.1749094 2.1609041 5.10585211 1.625 8.75 C1.51414062 9.54921875 1.40328125 10.3484375 1.2890625 11.171875 C1.19367188 11.77515625 1.09828125 12.3784375 1 13 C0.67 13 0.34 13 0 13 C-0.19466332 11.20909747 -0.38051213 9.41723495 -0.5625 7.625 C-0.66691406 6.62726563 -0.77132813 5.62953125 -0.87890625 4.6015625 C-1 2 -1 2 0 0 Z " fill="#545454" transform="translate(373,151)"/>
<path d="M0 0 C0.33 0.66 0.66 1.32 1 2 C-0.98 4.64 -2.96 7.28 -5 10 C-5.66 9.34 -6.32 8.68 -7 8 C-4.69 5.36 -2.38 2.72 0 0 Z " fill="#252525" transform="translate(354,241)"/>
<path d="M0 0 C0.66 0.33 1.32 0.66 2 1 C0.86280581 4.41158256 -0.04342944 5.11854601 -3 7 C-3.66 7 -4.32 7 -5 7 C-3.75023244 3.34683329 -3.32901247 2.21934164 0 0 Z " fill="#1A1A1A" transform="translate(221,162)"/>
<path d="M0 0 C0.66 0 1.32 0 2 0 C1.67 2.97 1.34 5.94 1 9 C-0.625 7.3125 -0.625 7.3125 -2 5 C-1.1875 2.25 -1.1875 2.25 0 0 Z " fill="#D6D6D6" transform="translate(169,235)"/>
<path d="M0 0 C0.99 0.33 1.98 0.66 3 1 C2 2.5 2 2.5 0 4 C-2.71846235 4.27345479 -5.25677199 4.13491285 -8 4 C-7.67 3.34 -7.34 2.68 -7 2 C-5.00714063 1.62633887 -3.00636471 1.29259485 -1 1 C-0.67 0.67 -0.34 0.34 0 0 Z " fill="#C9C9C9" transform="translate(377,212)"/>
<path d="M0 0 C0.66 0.66 1.32 1.32 2 2 C1.01 3.98 0.02 5.96 -1 8 C-1.66 8 -2.32 8 -3 8 C-2.45276317 4.62537285 -1.9451 2.91765 0 0 Z " fill="#D7D7D7" transform="translate(180,357)"/>
<path d="M0 0 C0.66 0 1.32 0 2 0 C1.67 2.64 1.34 5.28 1 8 C0.34 8 -0.32 8 -1 8 C-1.04241723 5.66705225 -1.04092937 3.33297433 -1 1 C-0.67 0.67 -0.34 0.34 0 0 Z " fill="#D9D9D9" transform="translate(155,310)"/>
<path d="M0 0 C0.66 0 1.32 0 2 0 C2.125 5.75 2.125 5.75 1 8 C0.34 8 -0.32 8 -1 8 C-0.67 5.36 -0.34 2.72 0 0 Z " fill="#D8D8D8" transform="translate(166,250)"/>
<path d="M0 0 C2.31 1.98 4.62 3.96 7 6 C6.34 6.66 5.68 7.32 5 8 C0 2.25 0 2.25 0 0 Z " fill="#303030" transform="translate(171,247)"/>
<path d="M0 0 C0.66 0.66 1.32 1.32 2 2 C-0.97 4.475 -0.97 4.475 -4 7 C-4 4 -4 4 -2 1.8125 C-1.34 1.214375 -0.68 0.61625 0 0 Z " fill="#D4D4D4" transform="translate(163,420)"/>
<path d="M0 0 C-0.33 0.99 -0.66 1.98 -1 3 C-4.0625 4.1875 -4.0625 4.1875 -7 5 C-6 2 -6 2 -4.0625 0.8125 C-2 0 -2 0 0 0 Z " fill="#D5D5D5" transform="translate(216,414)"/>
<path d="M0 0 C0.66 0.66 1.32 1.32 2 2 C-0.97 4.475 -0.97 4.475 -4 7 C-4 4 -4 4 -2 1.8125 C-1.34 1.214375 -0.68 0.61625 0 0 Z " fill="#D4D4D4" transform="translate(195,387)"/>
<path d="M0 0 C0.66 0 1.32 0 2 0 C1.67 2.64 1.34 5.28 1 8 C0.34 8 -0.32 8 -1 8 C-1.125 2.25 -1.125 2.25 0 0 Z " fill="#D6D6D6" transform="translate(146,355)"/>
<path d="M0 0 C0.66 0.66 1.32 1.32 2 2 C-0.97 4.475 -0.97 4.475 -4 7 C-4 4 -4 4 -2 1.8125 C-1.34 1.214375 -0.68 0.61625 0 0 Z " fill="#D6D6D6" transform="translate(227,354)"/>
<path d="M0 0 C0.66 0 1.32 0 2 0 C1.1875 2.9375 1.1875 2.9375 0 6 C-0.99 6.33 -1.98 6.66 -3 7 C-1.125 1.125 -1.125 1.125 0 0 Z " fill="#D4D4D4" transform="translate(187,344)"/>
<path d="M0 0 C0.66 0 1.32 0 2 0 C2.125 5.75 2.125 5.75 1 8 C0.34 8 -0.32 8 -1 8 C-0.67 5.36 -0.34 2.72 0 0 Z " fill="#D7D7D7" transform="translate(163,265)"/>
<path d="M0 0 C0.66 0.66 1.32 1.32 2 2 C-0.97 4.475 -0.97 4.475 -4 7 C-4 4 -4 4 -2 1.8125 C-1.34 1.214375 -0.68 0.61625 0 0 Z " fill="#D5D5D5" transform="translate(334,245)"/>
<path d="M0 0 C0.66 0 1.32 0 2 0 C1.67 2.64 1.34 5.28 1 8 C0.34 8 -0.32 8 -1 8 C-0.67 5.36 -0.34 2.72 0 0 Z " fill="#D5D5D5" transform="translate(172,220)"/>
</svg>
